<svg width="298" height="51" viewBox="0 0 298 51" fill="none" xmlns="http://www.w3.org/2000/svg">
<path d="M29.5 25.5L31.5 27.5L35.5 23.5M41.5 25.5C41.5 26.6819 41.2672 27.8522 40.8149 28.9442C40.3626 30.0361 39.6997 31.0282 38.864 31.864C38.0282 32.6997 37.0361 33.3626 35.9442 33.8149C34.8522 34.2672 33.6819 34.5 32.5 34.5C31.3181 34.5 30.1478 34.2672 29.0558 33.8149C27.9639 33.3626 26.9718 32.6997 26.136 31.864C25.3003 31.0282 24.6374 30.0361 24.1851 28.9442C23.7328 27.8522 23.5 26.6819 23.5 25.5C23.5 23.1131 24.4482 20.8239 26.136 19.136C27.8239 17.4482 30.1131 16.5 32.5 16.5C34.8869 16.5 37.1761 17.4482 38.864 19.136C40.5518 20.8239 41.5 23.1131 41.5 25.5Z" stroke="#22C55E" stroke-width="2" stroke-linecap="round" stroke-linejoin="round"/>
<path d="M94.5 25.5L96.5 27.5L100.5 23.5M106.5 25.5C106.5 26.6819 106.267 27.8522 105.815 28.9442C105.363 30.0361 104.7 31.0282 103.864 31.864C103.028 32.6997 102.036 33.3626 100.944 33.8149C99.8522 34.2672 98.6819 34.5 97.5 34.5C96.3181 34.5 95.1478 34.2672 94.0558 33.8149C92.9639 33.3626 91.9718 32.6997 91.136 31.864C90.3003 31.0282 89.6374 30.0361 89.1851 28.9442C88.7328 27.8522 88.5 26.6819 88.5 25.5C88.5 23.1131 89.4482 20.8239 91.136 19.136C92.8239 17.4482 95.1131 16.5 97.5 16.5C99.8869 16.5 102.176 17.4482 103.864 19.136C105.552 20.8239 106.5 23.1131 106.5 25.5Z" stroke="#22C55E" stroke-width="2" stroke-linecap="round" stroke-linejoin="round"/>
<path d="M146 25.5C146 26.0304 145.789 26.5391 145.414 26.9142C145.039 27.2893 144.53 27.5 144 27.5C143.47 27.5 142.961 27.2893 142.586 26.9142C142.211 26.5391 142 26.0304 142 25.5C142 24.9696 142.211 24.4609 142.586 24.0858C142.961 23.7107 143.47 23.5 144 23.5C144.53 23.5 145.039 23.7107 145.414 24.0858C145.789 24.4609 146 24.9696 146 25.5ZM152 25.5C152 26.0304 151.789 26.5391 151.414 26.9142C151.039 27.2893 150.53 27.5 150 27.5C149.47 27.5 148.961 27.2893 148.586 26.9142C148.211 26.5391 148 26.0304 148 25.5C148 24.9696 148.211 24.4609 148.586 24.0858C148.961 23.7107 149.47 23.5 150 23.5C150.53 23.5 151.039 23.7107 151.414 24.0858C151.789 24.4609 152 24.9696 152 25.5ZM156 27.5C156.53 27.5 157.039 27.2893 157.414 26.9142C157.789 26.5391 158 26.0304 158 25.5C158 24.9696 157.789 24.4609 157.414 24.0858C157.039 23.7107 156.53 23.5 156 23.5C155.47 23.5 154.961 23.7107 154.586 24.0858C154.211 24.4609 154 24.9696 154 25.5C154 26.0304 154.211 26.5391 154.586 26.9142C154.961 27.2893 155.47 27.5 156 27.5Z" fill="#94A3B8"/>
<path d="M193 25.5C193 26.2956 192.684 27.0587 192.121 27.6213C191.559 28.1839 190.796 28.5 190 28.5C189.204 28.5 188.441 28.1839 187.879 27.6213C187.316 27.0587 187 26.2956 187 25.5C187 24.7044 187.316 23.9413 187.879 23.3787C188.441 22.8161 189.204 22.5 190 22.5C190.796 22.5 191.559 22.8161 192.121 23.3787C192.684 23.9413 193 24.7044 193 25.5V25.5Z" stroke="#94A3B8" stroke-width="2" stroke-linecap="round" stroke-linejoin="round"/>
<path d="M180.458 25.5C181.732 21.443 185.523 18.5 190 18.5C194.478 18.5 198.268 21.443 199.542 25.5C198.268 29.557 194.478 32.5 190 32.5C185.523 32.5 181.732 29.557 180.458 25.5V25.5Z" stroke="#94A3B8" stroke-width="2" stroke-linecap="round" stroke-linejoin="round"/>
<path d="M229 18.5H224C223.47 18.5 222.961 18.7107 222.586 19.0858C222.211 19.4609 222 19.9696 222 20.5V31.5C222 32.0304 222.211 32.5391 222.586 32.9142C222.961 33.2893 223.47 33.5 224 33.5H235C235.53 33.5 236.039 33.2893 236.414 32.9142C236.789 32.5391 237 32.0304 237 31.5V26.5M235.586 17.086C235.77 16.895 235.991 16.7426 236.235 16.6378C236.479 16.533 236.742 16.4778 237.007 16.4755C237.273 16.4732 237.536 16.5238 237.782 16.6244C238.028 16.7249 238.251 16.8734 238.439 17.0612C238.627 17.249 238.775 17.4723 238.876 17.7181C238.976 17.9639 239.027 18.2272 239.025 18.4928C239.022 18.7584 238.967 19.0208 238.862 19.2648C238.757 19.5088 238.605 19.7295 238.414 19.914L229.828 28.5H227V25.672L235.586 17.086Z" stroke="#94A3B8" stroke-width="2" stroke-linecap="round" stroke-linejoin="round"/>
<path d="M277 20.5L276.133 32.642C276.097 33.1466 275.871 33.6188 275.501 33.9636C275.131 34.3083 274.644 34.5 274.138 34.5H265.862C265.356 34.5 264.869 34.3083 264.499 33.9636C264.129 33.6188 263.903 33.1466 263.867 32.642L263 20.5M268 24.5V30.5M272 24.5V30.5M273 20.5V17.5C273 17.2348 272.895 16.9804 272.707 16.7929C272.52 16.6054 272.265 16.5 272 16.5H268C267.735 16.5 267.48 16.6054 267.293 16.7929C267.105 16.9804 267 17.2348 267 17.5V20.5M262 20.5H278" stroke="#94A3B8" stroke-width="2" stroke-linecap="round" stroke-linejoin="round"/>
</svg>
