<?xml version="1.0" standalone="no"?>
<!DOCTYPE svg PUBLIC "-//W3C//DTD SVG 20010904//EN"
 "http://www.w3.org/TR/2001/REC-SVG-20010904/DTD/svg10.dtd">
<svg version="1.0" xmlns="http://www.w3.org/2000/svg"
 width="167.000000pt" height="167.000000pt" viewBox="0 0 167.000000 167.000000"
 preserveAspectRatio="xMidYMid meet">

<g transform="translate(0.000000,167.000000) scale(0.100000,-0.100000)"
fill="#000000" stroke="none">
<path d="M784 1236 c-35 -16 -64 -51 -64 -78 0 -10 -12 -24 -27 -32 -37 -19
-96 -82 -119 -126 -13 -26 -19 -68 -23 -157 l-6 -122 -43 -44 c-39 -39 -43
-47 -33 -66 11 -19 20 -21 105 -21 l94 0 6 -31 c15 -75 89 -139 161 -139 72 0
146 64 161 139 l7 31 93 0 c84 0 94 2 104 21 10 18 5 27 -34 69 -42 44 -46 54
-46 98 0 48 0 48 -35 49 -116 3 -174 154 -90 233 32 30 32 36 -7 60 -18 11
-36 33 -42 51 -21 61 -100 93 -162 65z"/>
<path d="M1043 1066 c-38 -17 -63 -61 -63 -112 0 -52 53 -104 107 -104 112 0
161 122 79 199 -30 28 -82 35 -123 17z m67 -101 c0 -42 -3 -55 -15 -55 -11 0
-15 11 -15 40 0 25 -5 40 -12 40 -14 1 20 30 34 30 4 0 8 -25 8 -55z"/>
</g>
</svg>
